<mxfile host="app.diagrams.net" modified="2024-01-21T02:07:06.506Z" agent="Mozilla/5.0 (Windows NT 10.0; Win64; x64) AppleWebKit/537.36 (KHTML, like Gecko) Chrome/120.0.0.0 Safari/537.36 Edg/120.0.0.0" etag="5aox3m-adU4azurlzxMG" version="22.1.21" type="device">
  <diagram name="Page-1" id="i7ZvTvvH-9_CqBNYTBK0">
    <mxGraphModel dx="996" dy="617" grid="1" gridSize="10" guides="1" tooltips="1" connect="1" arrows="1" fold="1" page="1" pageScale="1" pageWidth="827" pageHeight="1169" math="0" shadow="0">
      <root>
        <mxCell id="0" />
        <mxCell id="1" parent="0" />
        <mxCell id="gDcvc-_Q3N5DV0za-Fzw-3" value="" style="edgeStyle=orthogonalEdgeStyle;rounded=0;orthogonalLoop=1;jettySize=auto;html=1;" edge="1" parent="1" source="gDcvc-_Q3N5DV0za-Fzw-1" target="gDcvc-_Q3N5DV0za-Fzw-2">
          <mxGeometry relative="1" as="geometry" />
        </mxCell>
        <mxCell id="gDcvc-_Q3N5DV0za-Fzw-1" value="isIncreasing(s)" style="ellipse;whiteSpace=wrap;html=1;" vertex="1" parent="1">
          <mxGeometry x="50" y="80" width="120" height="80" as="geometry" />
        </mxCell>
        <mxCell id="gDcvc-_Q3N5DV0za-Fzw-5" value="" style="edgeStyle=orthogonalEdgeStyle;rounded=0;orthogonalLoop=1;jettySize=auto;html=1;" edge="1" parent="1" source="gDcvc-_Q3N5DV0za-Fzw-2" target="gDcvc-_Q3N5DV0za-Fzw-4">
          <mxGeometry relative="1" as="geometry" />
        </mxCell>
        <mxCell id="gDcvc-_Q3N5DV0za-Fzw-2" value="n = s.size()&lt;br&gt;i = 0" style="whiteSpace=wrap;html=1;" vertex="1" parent="1">
          <mxGeometry x="50" y="250" width="120" height="60" as="geometry" />
        </mxCell>
        <mxCell id="gDcvc-_Q3N5DV0za-Fzw-12" value="" style="edgeStyle=orthogonalEdgeStyle;rounded=0;orthogonalLoop=1;jettySize=auto;html=1;" edge="1" parent="1" source="gDcvc-_Q3N5DV0za-Fzw-4" target="gDcvc-_Q3N5DV0za-Fzw-11">
          <mxGeometry relative="1" as="geometry" />
        </mxCell>
        <mxCell id="gDcvc-_Q3N5DV0za-Fzw-4" value="i &amp;lt; n - 1" style="rhombus;whiteSpace=wrap;html=1;" vertex="1" parent="1">
          <mxGeometry x="70" y="430" width="80" height="80" as="geometry" />
        </mxCell>
        <mxCell id="gDcvc-_Q3N5DV0za-Fzw-8" value="" style="shape=flexArrow;endArrow=classic;html=1;rounded=0;exitX=0.5;exitY=1;exitDx=0;exitDy=0;" edge="1" parent="1" source="gDcvc-_Q3N5DV0za-Fzw-4">
          <mxGeometry width="50" height="50" relative="1" as="geometry">
            <mxPoint x="160" y="460" as="sourcePoint" />
            <mxPoint x="110" y="570" as="targetPoint" />
          </mxGeometry>
        </mxCell>
        <mxCell id="gDcvc-_Q3N5DV0za-Fzw-9" value="false" style="text;html=1;align=center;verticalAlign=middle;resizable=0;points=[];autosize=1;strokeColor=none;fillColor=none;" vertex="1" parent="1">
          <mxGeometry x="65" y="510" width="50" height="30" as="geometry" />
        </mxCell>
        <mxCell id="gDcvc-_Q3N5DV0za-Fzw-10" value="true" style="rounded=0;whiteSpace=wrap;html=1;" vertex="1" parent="1">
          <mxGeometry x="50" y="570" width="120" height="60" as="geometry" />
        </mxCell>
        <mxCell id="gDcvc-_Q3N5DV0za-Fzw-23" value="" style="edgeStyle=orthogonalEdgeStyle;rounded=0;orthogonalLoop=1;jettySize=auto;html=1;" edge="1" parent="1" source="gDcvc-_Q3N5DV0za-Fzw-11" target="gDcvc-_Q3N5DV0za-Fzw-19">
          <mxGeometry relative="1" as="geometry" />
        </mxCell>
        <mxCell id="gDcvc-_Q3N5DV0za-Fzw-11" value="s[i] &amp;gt; s[i + 1]" style="rhombus;whiteSpace=wrap;html=1;" vertex="1" parent="1">
          <mxGeometry x="230" y="430" width="80" height="80" as="geometry" />
        </mxCell>
        <mxCell id="gDcvc-_Q3N5DV0za-Fzw-13" value="true" style="text;html=1;align=center;verticalAlign=middle;resizable=0;points=[];autosize=1;strokeColor=none;fillColor=none;" vertex="1" parent="1">
          <mxGeometry x="160" y="448" width="40" height="30" as="geometry" />
        </mxCell>
        <mxCell id="gDcvc-_Q3N5DV0za-Fzw-14" value="" style="shape=singleArrow;whiteSpace=wrap;html=1;arrowWidth=0.4;arrowSize=0.4;" vertex="1" parent="1">
          <mxGeometry x="310" y="440" width="80" height="60" as="geometry" />
        </mxCell>
        <mxCell id="gDcvc-_Q3N5DV0za-Fzw-16" value="false" style="whiteSpace=wrap;html=1;" vertex="1" parent="1">
          <mxGeometry x="390" y="440" width="120" height="60" as="geometry" />
        </mxCell>
        <mxCell id="gDcvc-_Q3N5DV0za-Fzw-18" value="true" style="text;html=1;align=center;verticalAlign=middle;resizable=0;points=[];autosize=1;strokeColor=none;fillColor=none;" vertex="1" parent="1">
          <mxGeometry x="310" y="430" width="40" height="30" as="geometry" />
        </mxCell>
        <mxCell id="gDcvc-_Q3N5DV0za-Fzw-19" value="i = i + 1" style="whiteSpace=wrap;html=1;" vertex="1" parent="1">
          <mxGeometry x="210" y="320" width="120" height="60" as="geometry" />
        </mxCell>
        <mxCell id="gDcvc-_Q3N5DV0za-Fzw-21" value="" style="endArrow=classic;html=1;rounded=0;exitX=0;exitY=0.5;exitDx=0;exitDy=0;" edge="1" parent="1" source="gDcvc-_Q3N5DV0za-Fzw-19">
          <mxGeometry width="50" height="50" relative="1" as="geometry">
            <mxPoint x="250" y="460" as="sourcePoint" />
            <mxPoint x="110" y="350" as="targetPoint" />
          </mxGeometry>
        </mxCell>
        <mxCell id="gDcvc-_Q3N5DV0za-Fzw-24" value="false" style="text;html=1;align=center;verticalAlign=middle;resizable=0;points=[];autosize=1;strokeColor=none;fillColor=none;" vertex="1" parent="1">
          <mxGeometry x="260" y="390" width="50" height="30" as="geometry" />
        </mxCell>
        <mxCell id="gDcvc-_Q3N5DV0za-Fzw-27" value="" style="edgeStyle=orthogonalEdgeStyle;rounded=0;orthogonalLoop=1;jettySize=auto;html=1;" edge="1" parent="1" source="gDcvc-_Q3N5DV0za-Fzw-25">
          <mxGeometry relative="1" as="geometry">
            <mxPoint x="620" y="240" as="targetPoint" />
          </mxGeometry>
        </mxCell>
        <mxCell id="gDcvc-_Q3N5DV0za-Fzw-25" value="Begin" style="ellipse;whiteSpace=wrap;html=1;" vertex="1" parent="1">
          <mxGeometry x="560" y="80" width="120" height="80" as="geometry" />
        </mxCell>
        <mxCell id="gDcvc-_Q3N5DV0za-Fzw-30" value="" style="edgeStyle=orthogonalEdgeStyle;rounded=0;orthogonalLoop=1;jettySize=auto;html=1;" edge="1" parent="1" source="gDcvc-_Q3N5DV0za-Fzw-28" target="gDcvc-_Q3N5DV0za-Fzw-29">
          <mxGeometry relative="1" as="geometry" />
        </mxCell>
        <mxCell id="gDcvc-_Q3N5DV0za-Fzw-28" value="n" style="shape=parallelogram;perimeter=parallelogramPerimeter;whiteSpace=wrap;html=1;fixedSize=1;" vertex="1" parent="1">
          <mxGeometry x="560" y="240" width="120" height="60" as="geometry" />
        </mxCell>
        <mxCell id="gDcvc-_Q3N5DV0za-Fzw-52" value="" style="edgeStyle=orthogonalEdgeStyle;rounded=0;orthogonalLoop=1;jettySize=auto;html=1;" edge="1" parent="1" source="gDcvc-_Q3N5DV0za-Fzw-29" target="gDcvc-_Q3N5DV0za-Fzw-51">
          <mxGeometry relative="1" as="geometry" />
        </mxCell>
        <mxCell id="gDcvc-_Q3N5DV0za-Fzw-29" value="isIncreasing(s) || isDecreasing(s)" style="rhombus;whiteSpace=wrap;html=1;" vertex="1" parent="1">
          <mxGeometry x="555" y="370" width="130" height="140" as="geometry" />
        </mxCell>
        <mxCell id="gDcvc-_Q3N5DV0za-Fzw-31" value="" style="endArrow=classic;html=1;rounded=0;entryX=1;entryY=0.5;entryDx=0;entryDy=0;exitX=0;exitY=0.5;exitDx=0;exitDy=0;" edge="1" parent="1" source="gDcvc-_Q3N5DV0za-Fzw-29" target="gDcvc-_Q3N5DV0za-Fzw-1">
          <mxGeometry width="50" height="50" relative="1" as="geometry">
            <mxPoint x="390" y="350" as="sourcePoint" />
            <mxPoint x="440" y="300" as="targetPoint" />
            <Array as="points">
              <mxPoint x="555" y="400" />
              <mxPoint x="400" y="400" />
              <mxPoint x="400" y="120" />
            </Array>
          </mxGeometry>
        </mxCell>
        <mxCell id="gDcvc-_Q3N5DV0za-Fzw-32" value="" style="edgeStyle=orthogonalEdgeStyle;rounded=0;orthogonalLoop=1;jettySize=auto;html=1;" edge="1" parent="1" source="gDcvc-_Q3N5DV0za-Fzw-33" target="gDcvc-_Q3N5DV0za-Fzw-35">
          <mxGeometry relative="1" as="geometry" />
        </mxCell>
        <mxCell id="gDcvc-_Q3N5DV0za-Fzw-33" value="isDecreasing(s)" style="ellipse;whiteSpace=wrap;html=1;" vertex="1" parent="1">
          <mxGeometry x="781" y="80" width="120" height="80" as="geometry" />
        </mxCell>
        <mxCell id="gDcvc-_Q3N5DV0za-Fzw-34" value="" style="edgeStyle=orthogonalEdgeStyle;rounded=0;orthogonalLoop=1;jettySize=auto;html=1;" edge="1" parent="1" source="gDcvc-_Q3N5DV0za-Fzw-35" target="gDcvc-_Q3N5DV0za-Fzw-37">
          <mxGeometry relative="1" as="geometry" />
        </mxCell>
        <mxCell id="gDcvc-_Q3N5DV0za-Fzw-35" value="n = s.size()&lt;br&gt;i = 0" style="whiteSpace=wrap;html=1;" vertex="1" parent="1">
          <mxGeometry x="781" y="250" width="120" height="60" as="geometry" />
        </mxCell>
        <mxCell id="gDcvc-_Q3N5DV0za-Fzw-36" value="" style="edgeStyle=orthogonalEdgeStyle;rounded=0;orthogonalLoop=1;jettySize=auto;html=1;" edge="1" parent="1" source="gDcvc-_Q3N5DV0za-Fzw-37" target="gDcvc-_Q3N5DV0za-Fzw-42">
          <mxGeometry relative="1" as="geometry" />
        </mxCell>
        <mxCell id="gDcvc-_Q3N5DV0za-Fzw-37" value="i &amp;lt; n - 1" style="rhombus;whiteSpace=wrap;html=1;" vertex="1" parent="1">
          <mxGeometry x="801" y="430" width="80" height="80" as="geometry" />
        </mxCell>
        <mxCell id="gDcvc-_Q3N5DV0za-Fzw-38" value="" style="shape=flexArrow;endArrow=classic;html=1;rounded=0;exitX=0.5;exitY=1;exitDx=0;exitDy=0;" edge="1" parent="1" source="gDcvc-_Q3N5DV0za-Fzw-37">
          <mxGeometry width="50" height="50" relative="1" as="geometry">
            <mxPoint x="891" y="460" as="sourcePoint" />
            <mxPoint x="841" y="570" as="targetPoint" />
          </mxGeometry>
        </mxCell>
        <mxCell id="gDcvc-_Q3N5DV0za-Fzw-39" value="false" style="text;html=1;align=center;verticalAlign=middle;resizable=0;points=[];autosize=1;strokeColor=none;fillColor=none;" vertex="1" parent="1">
          <mxGeometry x="796" y="510" width="50" height="30" as="geometry" />
        </mxCell>
        <mxCell id="gDcvc-_Q3N5DV0za-Fzw-40" value="true" style="rounded=0;whiteSpace=wrap;html=1;" vertex="1" parent="1">
          <mxGeometry x="781" y="570" width="120" height="60" as="geometry" />
        </mxCell>
        <mxCell id="gDcvc-_Q3N5DV0za-Fzw-41" value="" style="edgeStyle=orthogonalEdgeStyle;rounded=0;orthogonalLoop=1;jettySize=auto;html=1;" edge="1" parent="1" source="gDcvc-_Q3N5DV0za-Fzw-42" target="gDcvc-_Q3N5DV0za-Fzw-47">
          <mxGeometry relative="1" as="geometry" />
        </mxCell>
        <mxCell id="gDcvc-_Q3N5DV0za-Fzw-42" value="s[i] &amp;lt; s[i + 1]" style="rhombus;whiteSpace=wrap;html=1;" vertex="1" parent="1">
          <mxGeometry x="961" y="430" width="80" height="80" as="geometry" />
        </mxCell>
        <mxCell id="gDcvc-_Q3N5DV0za-Fzw-43" value="true" style="text;html=1;align=center;verticalAlign=middle;resizable=0;points=[];autosize=1;strokeColor=none;fillColor=none;" vertex="1" parent="1">
          <mxGeometry x="891" y="448" width="40" height="30" as="geometry" />
        </mxCell>
        <mxCell id="gDcvc-_Q3N5DV0za-Fzw-44" value="" style="shape=singleArrow;whiteSpace=wrap;html=1;arrowWidth=0.4;arrowSize=0.4;" vertex="1" parent="1">
          <mxGeometry x="1041" y="440" width="80" height="60" as="geometry" />
        </mxCell>
        <mxCell id="gDcvc-_Q3N5DV0za-Fzw-45" value="false" style="whiteSpace=wrap;html=1;" vertex="1" parent="1">
          <mxGeometry x="1121" y="440" width="120" height="60" as="geometry" />
        </mxCell>
        <mxCell id="gDcvc-_Q3N5DV0za-Fzw-46" value="true" style="text;html=1;align=center;verticalAlign=middle;resizable=0;points=[];autosize=1;strokeColor=none;fillColor=none;" vertex="1" parent="1">
          <mxGeometry x="1041" y="430" width="40" height="30" as="geometry" />
        </mxCell>
        <mxCell id="gDcvc-_Q3N5DV0za-Fzw-47" value="i = i + 1" style="whiteSpace=wrap;html=1;" vertex="1" parent="1">
          <mxGeometry x="941" y="320" width="120" height="60" as="geometry" />
        </mxCell>
        <mxCell id="gDcvc-_Q3N5DV0za-Fzw-48" value="" style="endArrow=classic;html=1;rounded=0;exitX=0;exitY=0.5;exitDx=0;exitDy=0;" edge="1" parent="1" source="gDcvc-_Q3N5DV0za-Fzw-47">
          <mxGeometry width="50" height="50" relative="1" as="geometry">
            <mxPoint x="981" y="460" as="sourcePoint" />
            <mxPoint x="841" y="350" as="targetPoint" />
          </mxGeometry>
        </mxCell>
        <mxCell id="gDcvc-_Q3N5DV0za-Fzw-49" value="false" style="text;html=1;align=center;verticalAlign=middle;resizable=0;points=[];autosize=1;strokeColor=none;fillColor=none;" vertex="1" parent="1">
          <mxGeometry x="991" y="390" width="50" height="30" as="geometry" />
        </mxCell>
        <mxCell id="gDcvc-_Q3N5DV0za-Fzw-50" value="" style="endArrow=classic;html=1;rounded=0;entryX=0;entryY=0.5;entryDx=0;entryDy=0;" edge="1" parent="1" target="gDcvc-_Q3N5DV0za-Fzw-33">
          <mxGeometry width="50" height="50" relative="1" as="geometry">
            <mxPoint x="690" y="440" as="sourcePoint" />
            <mxPoint x="860" y="210" as="targetPoint" />
            <Array as="points">
              <mxPoint x="690" y="160" />
              <mxPoint x="690" y="120" />
            </Array>
          </mxGeometry>
        </mxCell>
        <mxCell id="gDcvc-_Q3N5DV0za-Fzw-59" value="" style="edgeStyle=orthogonalEdgeStyle;rounded=0;orthogonalLoop=1;jettySize=auto;html=1;" edge="1" parent="1" source="gDcvc-_Q3N5DV0za-Fzw-51" target="gDcvc-_Q3N5DV0za-Fzw-57">
          <mxGeometry relative="1" as="geometry" />
        </mxCell>
        <mxCell id="gDcvc-_Q3N5DV0za-Fzw-51" value="YES" style="whiteSpace=wrap;html=1;" vertex="1" parent="1">
          <mxGeometry x="560" y="590" width="120" height="60" as="geometry" />
        </mxCell>
        <mxCell id="gDcvc-_Q3N5DV0za-Fzw-53" value="true" style="text;html=1;align=center;verticalAlign=middle;resizable=0;points=[];autosize=1;strokeColor=none;fillColor=none;" vertex="1" parent="1">
          <mxGeometry x="580" y="530" width="40" height="30" as="geometry" />
        </mxCell>
        <mxCell id="gDcvc-_Q3N5DV0za-Fzw-54" value="NO" style="rounded=0;whiteSpace=wrap;html=1;" vertex="1" parent="1">
          <mxGeometry x="410" y="590" width="120" height="60" as="geometry" />
        </mxCell>
        <mxCell id="gDcvc-_Q3N5DV0za-Fzw-55" value="" style="endArrow=classic;html=1;rounded=0;entryX=0.5;entryY=0;entryDx=0;entryDy=0;" edge="1" parent="1" source="gDcvc-_Q3N5DV0za-Fzw-29" target="gDcvc-_Q3N5DV0za-Fzw-54">
          <mxGeometry width="50" height="50" relative="1" as="geometry">
            <mxPoint x="580" y="510" as="sourcePoint" />
            <mxPoint x="630" y="460" as="targetPoint" />
          </mxGeometry>
        </mxCell>
        <mxCell id="gDcvc-_Q3N5DV0za-Fzw-56" value="false" style="text;html=1;align=center;verticalAlign=middle;resizable=0;points=[];autosize=1;strokeColor=none;fillColor=none;" vertex="1" parent="1">
          <mxGeometry x="515" y="528" width="50" height="30" as="geometry" />
        </mxCell>
        <mxCell id="gDcvc-_Q3N5DV0za-Fzw-57" value="End" style="ellipse;whiteSpace=wrap;html=1;" vertex="1" parent="1">
          <mxGeometry x="560" y="710" width="120" height="80" as="geometry" />
        </mxCell>
        <mxCell id="gDcvc-_Q3N5DV0za-Fzw-60" value="" style="endArrow=classic;html=1;rounded=0;entryX=0;entryY=0.5;entryDx=0;entryDy=0;exitX=0.5;exitY=1;exitDx=0;exitDy=0;" edge="1" parent="1" source="gDcvc-_Q3N5DV0za-Fzw-54" target="gDcvc-_Q3N5DV0za-Fzw-57">
          <mxGeometry width="50" height="50" relative="1" as="geometry">
            <mxPoint x="580" y="530" as="sourcePoint" />
            <mxPoint x="630" y="480" as="targetPoint" />
            <Array as="points">
              <mxPoint x="470" y="750" />
            </Array>
          </mxGeometry>
        </mxCell>
      </root>
    </mxGraphModel>
  </diagram>
</mxfile>
